HIERARCHY
ROOT hip
{
  OFFSET 0 90.174 2.4664
  CHANNELS 6 Xposition Yposition Zposition Zrotation Xrotation Yrotation
  JOINT abdomen
  {
    OFFSET 0 -1.186 -1.5018
    CHANNELS 6 Xposition Yposition Zposition Zrotation Xrotation Yrotation
    JOINT abdomen2
    {
      OFFSET 0 9.964 0.2134
      CHANNELS 6 Xposition Yposition Zposition Zrotation Xrotation Yrotation
      JOINT chest
      {
        OFFSET 0 13.134 -3.2573
        CHANNELS 6 Xposition Yposition Zposition Zrotation Xrotation Yrotation
        JOINT neck
        {
          OFFSET 0 20.686 -1.6905
          CHANNELS 6 Xposition Yposition Zposition Zrotation Xrotation Yrotation
          JOINT head
          {
            OFFSET 0 7.238 -0.1237
            CHANNELS 6 Xposition Yposition Zposition Zrotation Xrotation Yrotation
            End Site
            {
              OFFSET 0 0 0
            }
          }
        }
        JOINT lCollar
        {
          OFFSET 1.7069 20.075 5.0056
          CHANNELS 6 Xposition Yposition Zposition Zrotation Xrotation Yrotation
          JOINT lShldr
          {
            OFFSET 13.6458 -0.047 -4.849
            CHANNELS 6 Xposition Yposition Zposition Zrotation Xrotation Yrotation
            JOINT lForeArm
            {
              OFFSET 28.3255 -0.9759 2.2888
              CHANNELS 6 Xposition Yposition Zposition Zrotation Xrotation Yrotation
              JOINT lHand
              {
                OFFSET 22.1583 -0.53 10.8316
                CHANNELS 6 Xposition Yposition Zposition Zrotation Xrotation Yrotation
                JOINT lThumb1
                {
                  OFFSET 0.786 0.112 2.5817
                  CHANNELS 6 Xposition Yposition Zposition Zrotation Xrotation Yrotation
                  JOINT lThumb2
                  {
                    OFFSET 0.3601 -0.878 4.2331
                    CHANNELS 6 Xposition Yposition Zposition Zrotation Xrotation Yrotation
                    JOINT lThumb2_End
                    {
                      OFFSET 1.8127 -1.216 2.2227
                      CHANNELS 6 Xposition Yposition Zposition Zrotation Xrotation Yrotation
                      End Site
                      {
                        OFFSET 0.0181 -0.0122 0.0222
                      }
                    }
                  }
                }
                JOINT lCarpal1
                {
                  OFFSET 0.9571 1.114 1.7695
                  CHANNELS 6 Xposition Yposition Zposition Zrotation Xrotation Yrotation
                  JOINT lIndex1
                  {
                    OFFSET 4.1246 0.487 4.1451
                    CHANNELS 6 Xposition Yposition Zposition Zrotation Xrotation Yrotation
                    JOINT lIndex2
                    {
                      OFFSET 3.4052 -1.454 2.7682
                      CHANNELS 6 Xposition Yposition Zposition Zrotation Xrotation Yrotation
                      JOINT lIndex2_End
                      {
                        OFFSET 1.4531 -1.795 1.2713
                        CHANNELS 6 Xposition Yposition Zposition Zrotation Xrotation Yrotation
                        End Site
                        {
                          OFFSET 0.0145 -0.0179 0.0127
                        }
                      }
                    }
                  }
                  JOINT lMid1
                  {
                    OFFSET 5.6954 0.21 2.1184
                    CHANNELS 6 Xposition Yposition Zposition Zrotation Xrotation Yrotation
                    JOINT lMid2
                    {
                      OFFSET 3.9766 -1.54 2.3863
                      CHANNELS 6 Xposition Yposition Zposition Zrotation Xrotation Yrotation
                      JOINT lMid2_End
                      {
                        OFFSET 1.4042 -1.926 1.125
                        CHANNELS 6 Xposition Yposition Zposition Zrotation Xrotation Yrotation
                        End Site
                        {
                          OFFSET 0.014 -0.0193 0.0113
                        }
                      }
                    }
                  }
                }
                JOINT lCarpal2
                {
                  OFFSET 2.0956 0.66 -0.3894
                  CHANNELS 6 Xposition Yposition Zposition Zrotation Xrotation Yrotation
                  JOINT lRing1
                  {
                    OFFSET 5.0395 -0.09 2.4971
                    CHANNELS 6 Xposition Yposition Zposition Zrotation Xrotation Yrotation
                    JOINT lRing2
                    {
                      OFFSET 3.7921 -1.552 1.4806
                      CHANNELS 6 Xposition Yposition Zposition Zrotation Xrotation Yrotation
                      JOINT lRing2_End
                      {
                        OFFSET 1.4655 -1.808 0.9609
                        CHANNELS 6 Xposition Yposition Zposition Zrotation Xrotation Yrotation
                        End Site
                        {
                          OFFSET 0.0147 -0.0181 0.0096
                        }
                      }
                    }
                  }
                  JOINT lPinky1
                  {
                    OFFSET 4.9141 -1.269 0.3591
                    CHANNELS 6 Xposition Yposition Zposition Zrotation Xrotation Yrotation
                    JOINT lPinky2
                    {
                      OFFSET 3.1477 -1.685 0.8462
                      CHANNELS 6 Xposition Yposition Zposition Zrotation Xrotation Yrotation
                      JOINT lPinky2_End
                      {
                        OFFSET 0.8055 -1.585 0.7955
                        CHANNELS 6 Xposition Yposition Zposition Zrotation Xrotation Yrotation
                        End Site
                        {
                          OFFSET 0.0081 -0.0158 0.008
                        }
                      }
                    }
                  }
                }
              }
            }
          }
        }
        JOINT rCollar
        {
          OFFSET -1.7069 20.075 5.0056
          CHANNELS 6 Xposition Yposition Zposition Zrotation Xrotation Yrotation
          JOINT rShldr
          {
            OFFSET -13.6458 -0.047 -4.849
            CHANNELS 6 Xposition Yposition Zposition Zrotation Xrotation Yrotation
            JOINT rForeArm
            {
              OFFSET -28.3255 -0.9759 2.2888
              CHANNELS 6 Xposition Yposition Zposition Zrotation Xrotation Yrotation
              JOINT rHand
              {
                OFFSET -22.1583 -0.53 10.8316
                CHANNELS 6 Xposition Yposition Zposition Zrotation Xrotation Yrotation
                JOINT rThumb1
                {
                  OFFSET -0.786 0.112 2.5817
                  CHANNELS 6 Xposition Yposition Zposition Zrotation Xrotation Yrotation
                  JOINT rThumb2
                  {
                    OFFSET -0.3601 -0.878 4.2331
                    CHANNELS 6 Xposition Yposition Zposition Zrotation Xrotation Yrotation
                    JOINT rThumb2_End
                    {
                      OFFSET -1.8127 -1.216 2.2227
                      CHANNELS 6 Xposition Yposition Zposition Zrotation Xrotation Yrotation
                      End Site
                      {
                        OFFSET -0.0181 -0.0122 0.0222
                      }
                    }
                  }
                }
                JOINT rCarpal1
                {
                  OFFSET -0.9571 1.114 1.7695
                  CHANNELS 6 Xposition Yposition Zposition Zrotation Xrotation Yrotation
                  JOINT rIndex1
                  {
                    OFFSET -4.1246 0.487 4.1451
                    CHANNELS 6 Xposition Yposition Zposition Zrotation Xrotation Yrotation
                    JOINT rIndex2
                    {
                      OFFSET -3.4052 -1.454 2.7682
                      CHANNELS 6 Xposition Yposition Zposition Zrotation Xrotation Yrotation
                      JOINT rIndex2_End
                      {
                        OFFSET -1.4531 -1.795 1.2713
                        CHANNELS 6 Xposition Yposition Zposition Zrotation Xrotation Yrotation
                        End Site
                        {
                          OFFSET -0.0145 -0.018 0.0127
                        }
                      }
                    }
                  }
                  JOINT rMid1
                  {
                    OFFSET -5.6954 0.21 2.1184
                    CHANNELS 6 Xposition Yposition Zposition Zrotation Xrotation Yrotation
                    JOINT rMid2
                    {
                      OFFSET -3.9766 -1.54 2.3863
                      CHANNELS 6 Xposition Yposition Zposition Zrotation Xrotation Yrotation
                      JOINT rMid2_End
                      {
                        OFFSET -1.4042 -1.926 1.125
                        CHANNELS 6 Xposition Yposition Zposition Zrotation Xrotation Yrotation
                        End Site
                        {
                          OFFSET -0.014 -0.0193 0.0113
                        }
                      }
                    }
                  }
                }
                JOINT rCarpal2
                {
                  OFFSET -2.0956 0.66 -0.3894
                  CHANNELS 6 Xposition Yposition Zposition Zrotation Xrotation Yrotation
                  JOINT rRing1
                  {
                    OFFSET -5.0395 -0.09 2.4971
                    CHANNELS 6 Xposition Yposition Zposition Zrotation Xrotation Yrotation
                    JOINT rRing2
                    {
                      OFFSET -3.7921 -1.552 1.4806
                      CHANNELS 6 Xposition Yposition Zposition Zrotation Xrotation Yrotation
                      JOINT rRing2_End
                      {
                        OFFSET -1.4655 -1.808 0.9609
                        CHANNELS 6 Xposition Yposition Zposition Zrotation Xrotation Yrotation
                        End Site
                        {
                          OFFSET -0.0147 -0.0181 0.0096
                        }
                      }
                    }
                  }
                  JOINT rPinky1
                  {
                    OFFSET -4.9141 -1.269 0.3592
                    CHANNELS 6 Xposition Yposition Zposition Zrotation Xrotation Yrotation
                    JOINT rPinky2
                    {
                      OFFSET -3.1477 -1.685 0.8462
                      CHANNELS 6 Xposition Yposition Zposition Zrotation Xrotation Yrotation
                      JOINT rPinky2_End
                      {
                        OFFSET -0.8055 -1.585 0.7955
                        CHANNELS 6 Xposition Yposition Zposition Zrotation Xrotation Yrotation
                        End Site
                        {
                          OFFSET -0.0081 -0.0158 0.008
                        }
                      }
                    }
                  }
                }
              }
            }
          }
        }
      }
    }
  }
  JOINT lThigh
  {
    OFFSET 8.367 -8.2066 0.5982
    CHANNELS 6 Xposition Yposition Zposition Zrotation Xrotation Yrotation
    JOINT lShin
    {
      OFFSET 2.1923 -43.463 -0.4932
      CHANNELS 6 Xposition Yposition Zposition Zrotation Xrotation Yrotation
      JOINT lFoot
      {
        OFFSET 0.7333 -45.8593 -2.6451
        CHANNELS 6 Xposition Yposition Zposition Zrotation Xrotation Yrotation
        End Site
        {
          OFFSET 2.6618 -4.2699 12.3931
        }
      }
    }
  }
  JOINT rThigh
  {
    OFFSET -8.367 -8.2066 0.5982
    CHANNELS 6 Xposition Yposition Zposition Zrotation Xrotation Yrotation
    JOINT rShin
    {
      OFFSET -2.1923 -43.463 -0.4931
      CHANNELS 6 Xposition Yposition Zposition Zrotation Xrotation Yrotation
      JOINT rFoot
      {
        OFFSET -0.7333 -45.8593 -2.6451
        CHANNELS 6 Xposition Yposition Zposition Zrotation Xrotation Yrotation
        End Site
        {
          OFFSET -2.6618 -4.2699 12.3931
        }
      }
    }
  }
}
MOTION
Frames:	4
Frame Time:	0.0333333
-0.011764 31.6739 -57.1377 0.665365 -80.127 -179.195 0 -1.186 -1.5018 1.1573 5.07328 -0.522551 1.11022e-016 9.964 0.2134 2.37525 10.1346 -1.15516 0 13.134 -3.2573 2.37525 10.1347 -1.15516 0 20.686 -1.6905 12.3298 24.9021 -5.17732 0 7.238 -0.1237 1.4658e-006 7.79037 3.17827e-006 1.7069 20.075 5.0056 -6.33213 -2.60356 8.25237 13.6458 -0.047 -4.849 2.42375 -3.81449 -48.0942 28.3255 -0.9759 2.2888 10.8954 -14.8748 -15.5926 22.1583 -0.53 10.8316 67.8068 -21.3126 16.9732 0.786 0.112 2.5817 -4.37282e-007 2.99555e-007 -2.3183e-006 0.3601 -0.878 4.2331 1.59028e-015 2.06736e-014 -6.36111e-015 1.8127 -1.216 2.2227 3.61333e-007 2.20744e-007 5.41268e-008 0.9571 1.114 1.7695 1.59028e-015 -2.38542e-015 -0 4.1246 0.487 4.1451 -4.37282e-007 2.99555e-007 -2.3183e-006 3.4052 -1.454 2.7682 1.59028e-015 1.98785e-014 -6.36111e-015 1.4531 -1.795 1.2713 3.61333e-007 2.20744e-007 5.41268e-008 5.6954 0.21 2.1184 -4.37282e-007 2.99555e-007 -2.3183e-006 3.9766 -1.54 2.3863 1.59028e-015 1.98785e-014 -6.36111e-015 1.4042 -1.926 1.125 3.61333e-007 2.20744e-007 5.41268e-008 2.0956 0.66 -0.3894 1.59028e-015 -2.38542e-015 -0 5.0395 -0.09 2.4971 -4.37282e-007 2.99555e-007 -2.3183e-006 3.7921 -1.552 1.4806 1.59028e-015 1.98785e-014 -6.36111e-015 1.4655 -1.808 0.9609 3.61333e-007 2.20744e-007 5.41268e-008 4.9141 -1.269 0.3591 -4.37282e-007 2.99555e-007 -2.3183e-006 3.1477 -1.685 0.8462 1.59028e-015 1.98785e-014 -6.36111e-015 0.8055 -1.585 0.7955 3.61333e-007 2.20744e-007 5.41268e-008 -1.7069 20.075 5.0056 1.66653 -9.98671 -2.16207 -13.6458 -0.047 -4.849 -2.07366 -3.17539 51.7696 -28.3255 -0.9759 2.2888 -14.5099 -17.1071 21.9544 -22.1583 -0.53 10.8316 -63.7502 -13.8593 -15.2124 -0.786 0.112 2.5817 -1.59028e-015 -1.19271e-015 -3.18055e-015 -0.3601 -0.878 4.2331 -2.38542e-015 1.59028e-015 -3.18055e-015 -1.8127 -1.216 2.2227 -2.38542e-015 1.98785e-015 -3.18055e-015 -0.9571 1.114 1.7695 -8.82781e-032 -1.59028e-015 -3.18055e-015 -4.1246 0.487 4.1451 -3.97569e-015 1.98785e-015 3.18055e-015 -3.4052 -1.454 2.7682 -0 -3.97569e-016 -0 -1.4531 -1.795 1.2713 -1.59028e-015 1.19271e-015 -6.36111e-015 -5.6954 0.21 2.1184 -3.97569e-015 1.98785e-015 3.18055e-015 -3.9766 -1.54 2.3863 -0 -3.97569e-016 -0 -1.4042 -1.926 1.125 -1.59028e-015 1.19271e-015 -6.36111e-015 -2.0956 0.66 -0.3894 -8.82781e-032 -1.59028e-015 -3.18055e-015 -5.0395 -0.09 2.4971 -3.97569e-015 1.98785e-015 3.18055e-015 -3.7921 -1.552 1.4806 -0 -3.97569e-016 -0 -1.4655 -1.808 0.9609 -1.59028e-015 1.19271e-015 -6.36111e-015 -4.9141 -1.269 0.3592 -3.97569e-015 1.98785e-015 3.18055e-015 -3.1477 -1.685 0.8462 -0 -3.97569e-016 -0 -0.8055 -1.585 0.7955 -1.59028e-015 1.19271e-015 -6.36111e-015 8.367 -8.2066 0.5982 137.133 -55.3182 154.067 2.1923 -43.463 -0.4932 168.719 62.1587 -164.369 0.7333 -45.8593 -2.6451 13.3319 61.3509 -4.3497 -8.367 -8.2066 0.5982 -137.122 -55.3063 -154.079 -2.1923 -43.463 -0.4931 -168.673 62.1665 164.309 -0.7333 -45.8593 -2.6451 -13.3433 61.361 4.35102 
-0.0124993 31.2618 -56.6393 0.791221 -80.929 -179.059 -1.38778e-017 -1.186 -1.5018 1.05713 4.64755 -0.470267 0 9.964 0.2134 2.16336 9.28541 -1.03192 0 13.134 -3.2573 2.16336 9.28543 -1.03192 8.88178e-016 20.686 -1.6905 12.3228 25.294 -5.27127 -1.77636e-015 7.238 -0.1237 1.83159e-006 7.84259 -3.01305e-006 1.7069 20.075 5.0056 -6.32695 -2.39727 7.53794 13.6458 -0.047 -4.849 2.42375 -3.81451 -48.0942 28.3255 -0.9759 2.2888 10.8953 -14.8748 -15.5926 22.1583 -0.53 10.8316 67.0108 -21.0825 16.4824 0.786 0.112 2.5817 3.18055e-015 3.18055e-015 -3.18055e-015 0.3601 -0.878 4.2331 3.18055e-015 -7.95139e-016 -6.36111e-015 1.8127 -1.216 2.2227 3.18055e-015 -7.95139e-016 -3.18055e-015 0.9571 1.114 1.7695 2.20695e-031 3.97569e-015 -3.18055e-015 4.1246 0.487 4.1451 -3.18055e-015 2.38542e-015 6.36111e-015 3.4052 -1.454 2.7682 1.59028e-015 -1.59028e-015 -3.18055e-015 1.4531 -1.795 1.2713 1.59028e-015 0 -0 5.6954 0.21 2.1184 -3.18055e-015 2.38542e-015 6.36111e-015 3.9766 -1.54 2.3863 1.59028e-015 -1.59028e-015 -3.18055e-015 1.4042 -1.926 1.125 1.59028e-015 0 -0 2.0956 0.66 -0.3894 2.20695e-031 3.97569e-015 -3.18055e-015 5.0395 -0.09 2.4971 -3.18055e-015 2.38542e-015 6.36111e-015 3.7921 -1.552 1.4806 1.59028e-015 -1.59028e-015 -3.18055e-015 1.4655 -1.808 0.9609 1.59028e-015 0 -0 4.9141 -1.269 0.3591 -3.18055e-015 2.38542e-015 6.36111e-015 3.1477 -1.685 0.8462 1.59028e-015 -1.59028e-015 -3.18055e-015 0.8055 -1.585 0.7955 1.59028e-015 0 -0 -1.7069 20.075 5.0056 2.04756 -9.18896 -1.91147 -13.6458 -0.047 -4.849 -2.08997 -3.21487 51.5315 -28.3255 -0.9759 2.2888 -14.3847 -16.9506 21.3146 -22.1583 -0.53 10.8316 -63.3169 -14.2162 -14.9527 -0.786 0.112 2.5817 -1.32417e-031 -1.19271e-015 -6.36111e-015 -0.3601 -0.878 4.2331 7.95139e-016 -1.19271e-015 3.18055e-015 -1.8127 -1.216 2.2227 7.95139e-016 0 -0 -0.9571 1.114 1.7695 -7.95139e-016 -7.95139e-016 -6.36111e-015 -4.1246 0.487 4.1451 -1.59028e-015 3.97569e-016 1.59028e-014 -3.4052 -1.454 2.7682 -0 -1.19271e-015 -0 -1.4531 -1.795 1.2713 -6.62086e-032 -1.19271e-015 -3.18055e-015 -5.6954 0.21 2.1184 -1.59028e-015 3.97569e-016 1.59028e-014 -3.9766 -1.54 2.3863 -0 -1.19271e-015 -0 -1.4042 -1.926 1.125 -6.62086e-032 -1.19271e-015 -3.18055e-015 -2.0956 0.66 -0.3894 -7.95139e-016 -7.95139e-016 -6.36111e-015 -5.0395 -0.09 2.4971 -1.59028e-015 3.97569e-016 1.59028e-014 -3.7921 -1.552 1.4806 -0 -1.19271e-015 -0 -1.4655 -1.808 0.9609 -6.62086e-032 -1.19271e-015 -3.18055e-015 -4.9141 -1.269 0.3592 -1.59028e-015 3.97569e-016 1.59028e-014 -3.1477 -1.685 0.8462 -0 -1.19271e-015 -0 -0.8055 -1.585 0.7955 -6.62086e-032 -1.19271e-015 -3.18055e-015 8.367 -8.2066 0.5982 138.96 -54.1079 155.988 2.1923 -43.463 -0.4932 168.885 61.3954 -164.429 0.7333 -45.8593 -2.6451 13.271 61.4408 -4.26354 -8.367 -8.2066 0.5982 -138.949 -54.0976 -156 -2.1923 -43.463 -0.4931 -168.843 61.4051 164.372 -0.7333 -45.8593 -2.6451 -13.2832 61.4518 4.26513 
-0.0132043 30.8495 -56.1397 0.94244 -81.7309 -178.897 1.38778e-017 -1.186 -1.5018 0.956883 4.22169 -0.421657 0 9.964 0.2134 1.95297 8.43559 -0.917921 0 13.134 -3.2573 1.95297 8.43557 -0.917921 0 20.686 -1.6905 12.3162 25.6835 -5.36519 -3.55271e-015 7.238 -0.1237 2.50291e-006 7.89476 1.60118e-006 1.7069 20.075 5.0056 -6.31921 -2.19111 6.82365 13.6458 -0.047 -4.849 2.42375 -3.81449 -48.0942 28.3255 -0.9759 2.2888 10.8953 -14.8748 -15.5926 22.1583 -0.53 10.8316 66.2183 -20.8461 15.9958 0.786 0.112 2.5817 1.76556e-031 1.59028e-015 -6.36111e-015 0.3601 -0.878 4.2331 8.82781e-032 1.59028e-015 -3.18055e-015 1.8127 -1.216 2.2227 1.76556e-031 1.59028e-015 -6.36111e-015 0.9571 1.114 1.7695 -1.59028e-015 0 -3.18055e-015 4.1246 0.487 4.1451 -1.59028e-015 1.59028e-015 -0 3.4052 -1.454 2.7682 4.41391e-032 -7.95139e-016 3.18055e-015 1.4531 -1.795 1.2713 -0 0 3.18055e-015 5.6954 0.21 2.1184 -1.59028e-015 1.59028e-015 -0 3.9766 -1.54 2.3863 4.41391e-032 -7.95139e-016 3.18055e-015 1.4042 -1.926 1.125 -0 0 3.18055e-015 2.0956 0.66 -0.3894 -1.59028e-015 0 -3.18055e-015 5.0395 -0.09 2.4971 -1.59028e-015 1.59028e-015 -0 3.7921 -1.552 1.4806 4.41391e-032 -7.95139e-016 3.18055e-015 1.4655 -1.808 0.9609 -0 0 3.18055e-015 4.9141 -1.269 0.3591 -1.59028e-015 1.59028e-015 -0 3.1477 -1.685 0.8462 4.41391e-032 -7.95139e-016 3.18055e-015 0.8055 -1.585 0.7955 -0 0 3.18055e-015 -1.7069 20.075 5.0056 2.42423 -8.38966 -1.6668 -13.6458 -0.047 -4.849 -2.10646 -3.2543 51.2934 -28.3255 -0.9759 2.2888 -14.2578 -16.7955 20.6751 -22.1583 -0.53 10.8316 -62.8813 -14.5711 -14.6898 -0.786 0.112 2.5817 2.64834e-031 -1.19271e-015 1.27222e-014 -0.3601 -0.878 4.2331 3.71192e-007 -2.09484e-007 2.32906e-008 -1.8127 -1.216 2.2227 1.59028e-015 2.38542e-015 -3.18055e-015 -0.9571 1.114 1.7695 1.59028e-015 -7.95139e-016 1.27222e-014 -4.1246 0.487 4.1451 -2.38542e-015 7.95139e-016 2.54444e-014 -3.4052 -1.454 2.7682 3.71192e-007 -2.09484e-007 2.32905e-008 -1.4531 -1.795 1.2713 3.18055e-015 4.77083e-015 -6.36111e-015 -5.6954 0.21 2.1184 -2.38542e-015 7.95139e-016 2.54444e-014 -3.9766 -1.54 2.3863 3.71192e-007 -2.09484e-007 2.32905e-008 -1.4042 -1.926 1.125 3.18055e-015 4.77083e-015 -6.36111e-015 -2.0956 0.66 -0.3894 1.59028e-015 -7.95139e-016 1.27222e-014 -5.0395 -0.09 2.4971 -2.38542e-015 7.95139e-016 2.54444e-014 -3.7921 -1.552 1.4806 3.71192e-007 -2.09484e-007 2.32905e-008 -1.4655 -1.808 0.9609 3.18055e-015 4.77083e-015 -6.36111e-015 -4.9141 -1.269 0.3592 -2.38542e-015 7.95139e-016 2.54444e-014 -3.1477 -1.685 0.8462 3.71192e-007 -2.09484e-007 2.32905e-008 -0.8055 -1.585 0.7955 3.18055e-015 4.77083e-015 -6.36111e-015 8.367 -8.2066 0.5982 140.672 -52.8648 157.798 2.1923 -43.463 -0.4932 169.043 60.6315 -164.478 0.7333 -45.8593 -2.6451 13.2078 61.5327 -4.1748 -8.367 -8.2066 0.5982 -140.661 -52.8562 -157.81 -2.1923 -43.463 -0.4931 -169.004 60.643 164.425 -0.7333 -45.8593 -2.6451 -13.2207 61.5444 4.17653 
-0.0138835 30.437 -55.6391 1.12716 -82.5326 -178.702 2.77556e-017 -1.186 -1.5018 0.856563 3.79592 -0.376723 0 9.964 0.2134 1.74394 7.58569 -0.813104 0 13.134 -3.2573 1.74394 7.58565 -0.813103 0 20.686 -1.6905 12.3201 26.173 -5.48314 -1.77636e-015 7.238 -0.1237 3.65582e-006 7.98497 -2.90383e-007 1.7069 20.075 5.0056 -6.30888 -1.98507 6.10957 13.6458 -0.047 -4.849 2.42376 -3.81447 -48.0942 28.3255 -0.9759 2.2888 10.8953 -14.8748 -15.5926 22.1583 -0.53 10.8316 65.4294 -20.6036 15.5136 0.786 0.112 2.5817 -0 -7.95139e-016 -0 0.3601 -0.878 4.2331 -0 0 3.18055e-015 1.8127 -1.216 2.2227 -1.59028e-015 1.59028e-015 3.18055e-015 0.9571 1.114 1.7695 -0 -2.38542e-015 -0 4.1246 0.487 4.1451 1.59028e-015 7.95139e-016 3.18055e-015 3.4052 -1.454 2.7682 -1.32417e-031 2.38542e-015 3.18055e-015 1.4531 -1.795 1.2713 3.53113e-031 -3.18055e-015 6.36111e-015 5.6954 0.21 2.1184 1.59028e-015 7.95139e-016 3.18055e-015 3.9766 -1.54 2.3863 -1.32417e-031 2.38542e-015 3.18055e-015 1.4042 -1.926 1.125 3.53113e-031 -3.18055e-015 6.36111e-015 2.0956 0.66 -0.3894 -0 -2.38542e-015 -0 5.0395 -0.09 2.4971 1.59028e-015 7.95139e-016 3.18055e-015 3.7921 -1.552 1.4806 -1.32417e-031 2.38542e-015 3.18055e-015 1.4655 -1.808 0.9609 3.53113e-031 -3.18055e-015 6.36111e-015 4.9141 -1.269 0.3591 1.59028e-015 7.95139e-016 3.18055e-015 3.1477 -1.685 0.8462 -1.32417e-031 2.38542e-015 3.18055e-015 0.8055 -1.585 0.7955 3.53113e-031 -3.18055e-015 6.36111e-015 -1.7069 20.075 5.0056 2.79658 -7.58902 -1.42799 -13.6458 -0.047 -4.849 -2.12311 -3.29361 51.0553 -28.3255 -0.9759 2.2888 -14.1293 -16.6417 20.0358 -22.1583 -0.53 10.8316 -62.4433 -14.924 -14.4237 -0.786 0.112 2.5817 1.59028e-015 -3.18055e-015 -1.59028e-014 -0.3601 -0.878 4.2331 1.59028e-015 -1.98785e-015 -6.36111e-015 -1.8127 -1.216 2.2227 7.95139e-016 -1.59028e-015 -9.54166e-015 -0.9571 1.114 1.7695 -7.95139e-016 -1.98785e-015 -9.54166e-015 -4.1246 0.487 4.1451 -1.59028e-015 -1.59028e-015 -0 -3.4052 -1.454 2.7682 2.38542e-015 -1.59028e-015 -1.27222e-014 -1.4531 -1.795 1.2713 2.38542e-015 -7.95139e-016 -6.36111e-015 -5.6954 0.21 2.1184 -1.59028e-015 -1.59028e-015 -0 -3.9766 -1.54 2.3863 2.38542e-015 -1.59028e-015 -1.27222e-014 -1.4042 -1.926 1.125 2.38542e-015 -7.95139e-016 -6.36111e-015 -2.0956 0.66 -0.3894 -7.95139e-016 -1.98785e-015 -9.54166e-015 -5.0395 -0.09 2.4971 -1.59028e-015 -1.59028e-015 -0 -3.7921 -1.552 1.4806 2.38542e-015 -1.59028e-015 -1.27222e-014 -1.4655 -1.808 0.9609 2.38542e-015 -7.95139e-016 -6.36111e-015 -4.9141 -1.269 0.3592 -1.59028e-015 -1.59028e-015 -0 -3.1477 -1.685 0.8462 2.38542e-015 -1.59028e-015 -1.27222e-014 -0.8055 -1.585 0.7955 2.38542e-015 -7.95139e-016 -6.36111e-015 8.367 -8.2066 0.5982 142.277 -51.5925 159.503 2.1923 -43.463 -0.4932 169.193 59.8672 -164.518 0.7333 -45.8593 -2.6451 13.1421 61.6266 -4.08333 -8.367 -8.2066 0.5982 -142.267 -51.5856 -159.515 -2.1923 -43.463 -0.4931 -169.157 59.8805 164.468 -0.7333 -45.8593 -2.6451 -13.1557 61.6392 4.08527 
